<svg width="21" height="20" viewBox="0 0 21 20" fill="none" xmlns="http://www.w3.org/2000/svg">
<path d="M6.29574 8.33332V18.3333M13.2599 4.89999L12.3894 8.33332H17.4646C17.7349 8.33332 18.0014 8.39356 18.2432 8.50928C18.485 8.62499 18.6952 8.793 18.8574 8.99999C19.0196 9.20698 19.1292 9.44728 19.1775 9.70185C19.2259 9.95642 19.2117 10.2183 19.136 10.4667L17.1077 17.1333C17.0022 17.4795 16.7823 17.7836 16.4809 18C16.1795 18.2164 15.813 18.3333 15.4363 18.3333H3.68417C3.22241 18.3333 2.77957 18.1577 2.45306 17.8452C2.12655 17.5326 1.94312 17.1087 1.94312 16.6667V9.99999C1.94312 9.55796 2.12655 9.13404 2.45306 8.82148C2.77957 8.50892 3.22241 8.33332 3.68417 8.33332H6.08681C6.41072 8.33316 6.72816 8.2465 7.00344 8.08309C7.27872 7.91968 7.50092 7.686 7.64505 7.40832L10.6484 1.66666C11.0589 1.67152 11.4629 1.76513 11.8304 1.94049C12.1978 2.11584 12.5191 2.36841 12.7702 2.67933C13.0213 2.99024 13.1958 3.35146 13.2806 3.73599C13.3654 4.12053 13.3583 4.51844 13.2599 4.89999Z" stroke="black" stroke-width="2" stroke-linecap="round" stroke-linejoin="round"/>
</svg>
