<svg width="20" height="20" viewBox="0 0 20 20" fill="none" xmlns="http://www.w3.org/2000/svg">
<path d="M14.4739 11.6667V1.66666M7.50965 15.1L8.38018 11.6667H3.30502C3.03473 11.6667 2.76815 11.6064 2.52639 11.4907C2.28464 11.375 2.07435 11.207 1.91217 11C1.75 10.793 1.6404 10.5527 1.59205 10.2981C1.5437 10.0436 1.55793 9.78171 1.63361 9.53332L3.66193 2.86666C3.76741 2.52046 3.98734 2.21636 4.28871 1.99999C4.59008 1.78362 4.95663 1.66666 5.33334 1.66666H17.0854C17.5472 1.66666 17.99 1.84225 18.3165 2.15481C18.643 2.46737 18.8265 2.8913 18.8265 3.33332V9.99999C18.8265 10.442 18.643 10.8659 18.3165 11.1785C17.99 11.4911 17.5472 11.6667 17.0854 11.6667H14.6828C14.3589 11.6668 14.0414 11.7535 13.7662 11.9169C13.4909 12.0803 13.2687 12.314 13.1245 12.5917L10.1212 18.3333C9.71071 18.3285 9.30664 18.2348 8.93922 18.0595C8.5718 17.8841 8.25053 17.6316 7.9994 17.3207C7.74828 17.0097 7.57379 16.6485 7.48899 16.264C7.40418 15.8795 7.41124 15.4815 7.50965 15.1Z" stroke="black" stroke-width="2" stroke-linecap="round" stroke-linejoin="round"/>
</svg>
